# xmcd
#
# Track frame offsets: 
#        150
#        15800
#        28498
#        38443
#        48675
#        59910
#        71905
#        84488
#        97176
#        108708
#        117023
#        128242
#
# Disc length: 1927 seconds
#
# Revision: 2
# Processed by: cddbd v1.5.2PL0 Copyright (c) Steve Scherf et al.
# Submitted via: ExactAudioCopy v1.0b4
#
DISCID=ab07850c
DTITLE=Cowboy Jack Clement - Guess Things Happen That Way
DYEAR=2004
DGENRE=Country
TTITLE0=No Expectations
TTITLE1=Guess Things Happen That Way (with Johnny Cash)
TTITLE2=There Ain't A Tune
TTITLE3=It'll Be Me
TTITLE4=S-E-R-I-O-U-S-L-Y
TTITLE5=Dreaming My Dreams With You
TTITLE6=Every Place I've Been
TTITLE7=Trapped In An Old Country Song
TTITLE8=Ballad Of A Teenage Queen (with Johnny Cash)
TTITLE9=Drinking Carrot Juice
TTITLE10=Leavin' Is The Lovin' Thing To Do
TTITLE11=Off To Join The World
EXTD=YEAR: 2004
EXTT0=
EXTT1=
EXTT2=
EXTT3=
EXTT4=
EXTT5=
EXTT6=
EXTT7=
EXTT8=
EXTT9=
EXTT10=
EXTT11=
PLAYORDER=
